<?xml version="1.0" standalone="no"?>
<!DOCTYPE svg PUBLIC "-//W3C//DTD SVG 20010904//EN"
 "http://www.w3.org/TR/2001/REC-SVG-20010904/DTD/svg10.dtd">
<svg version="1.0" xmlns="http://www.w3.org/2000/svg"
 width="225.000000pt" height="225.000000pt" viewBox="0 0 225.000000 225.000000"
 preserveAspectRatio="xMidYMid meet">

<g transform="translate(0.000000,225.000000) scale(0.100000,-0.100000)"
fill="#000000" stroke="none">
<path d="M820 2134 c-19 -2 -84 -9 -145 -14 -60 -6 -137 -18 -170 -26 -185
-48 -312 -187 -349 -385 -34 -180 -51 -545 -37 -794 24 -408 50 -510 159 -628
60 -64 104 -91 194 -121 218 -73 1011 -78 1282 -10 169 43 287 153 337 313 64
208 72 966 13 1251 -21 100 -55 169 -116 235 -88 97 -182 139 -358 162 -109
13 -725 27 -810 17z m600 -164 c293 -18 368 -38 440 -116 46 -51 73 -106 89
-185 48 -246 38 -1017 -16 -1164 -11 -32 -38 -70 -73 -106 -86 -88 -119 -97
-451 -118 -245 -16 -302 -16 -495 -5 -380 23 -434 35 -516 121 -84 86 -105
204 -115 623 -5 258 4 490 28 639 26 167 110 252 280 287 149 29 548 41 829
24z"/>
<path d="M569 1523 c-15 -9 -35 -30 -45 -47 -17 -28 -19 -59 -22 -330 -3 -258
-1 -305 13 -342 18 -47 57 -77 113 -87 l32 -6 0 271 c0 256 1 271 17 255 9 -9
105 -130 213 -269 136 -176 203 -254 218 -256 14 -2 33 7 52 27 l30 29 0 311
0 311 161 0 161 0 34 -34 c41 -41 44 -74 10 -113 -24 -27 -27 -28 -140 -31
l-116 -4 0 -25 c0 -36 29 -79 64 -97 17 -8 60 -20 96 -26 104 -19 140 -46 140
-105 0 -68 -33 -87 -173 -95 -59 -3 -112 -11 -118 -17 -6 -6 -15 -30 -20 -54
-5 -24 -12 -52 -15 -63 -6 -18 1 -18 147 -14 139 4 159 6 210 30 63 29 101 72
118 133 24 89 6 163 -53 221 l-43 40 38 52 c59 83 61 171 6 253 -38 57 -90 78
-219 90 -62 6 -166 9 -232 6 -130 -7 -153 -15 -186 -70 -18 -29 -20 -51 -20
-225 0 -150 -3 -193 -12 -190 -7 2 -88 98 -180 213 -240 302 -227 291 -279
258z"/>
</g>
</svg>
